<?xml version="1.0" standalone="no"?>
<!DOCTYPE svg PUBLIC "-//W3C//DTD SVG 20010904//EN"
 "http://www.w3.org/TR/2001/REC-SVG-20010904/DTD/svg10.dtd">
<svg version="1.0" xmlns="http://www.w3.org/2000/svg"
 width="395.000000pt" height="395.000000pt" viewBox="0 0 395.000000 395.000000"
 preserveAspectRatio="xMidYMid meet">
<metadata>
Created by potrace 1.11, written by Peter Selinger 2001-2013
</metadata>
<g transform="translate(0.000000,395.000000) scale(0.100000,-0.100000)"
fill="#000000" stroke="none">
<path d="M1766 3609 c-27 -4 -63 -10 -80 -12 -17 -3 -60 -12 -96 -21 -36 -9
-74 -19 -85 -21 -11 -3 -45 -14 -75 -26 -30 -11 -68 -25 -85 -31 -77 -28 -328
-171 -365 -208 -3 -3 -27 -23 -54 -44 -259 -208 -459 -520 -545 -849 -41 -154
-54 -258 -55 -422 0 -187 12 -278 59 -450 93 -340 308 -656 590 -870 218 -165
502 -285 766 -322 69 -9 377 -10 449 -1 432 56 846 297 1103 643 20 28 41 55
46 61 60 72 208 388 226 483 1 9 8 34 14 56 5 22 13 56 16 75 3 19 8 42 10 50
18 66 25 331 12 450 -74 665 -547 1225 -1192 1410 -38 11 -83 23 -100 25 -16
3 -41 8 -55 10 -73 15 -110 18 -275 20 -99 2 -202 -1 -229 -6z m1284 -807
l189 -188 -834 -834 -833 -833 -431 429 -430 430 189 189 c104 104 192 187
194 185 3 -3 112 -111 241 -240 l236 -234 642 642 c353 353 644 642 646 642 2
0 88 -85 191 -188z"/>
</g>
</svg>
